<?xml version="1.0" encoding="utf-8"?>
<!-- Generator: Adobe Illustrator 16.0.3, SVG Export Plug-In . SVG Version: 6.00 Build 0)  -->
<!DOCTYPE svg PUBLIC "-//W3C//DTD SVG 1.1//EN" "http://www.w3.org/Graphics/SVG/1.1/DTD/svg11.dtd">
<svg version="1.1" id="Capa_1" xmlns="http://www.w3.org/2000/svg" xmlns:xlink="http://www.w3.org/1999/xlink" x="0px" y="0px"
	 width="40px" height="40px" viewBox="0 0 40 40" enable-background="new 0 0 40 40" xml:space="preserve">
<path display="none" d="M20,1C9.51,1,1,9.51,1,20s8.51,19,19,19s19-8.51,19-19S30.49,1,20,1z M25.51,10.22
	c-0.92-0.18-2.14-0.32-2.89-0.32c-1.85,0-2.32,0.64-2.32,2.39v2.93h4.96l-0.25,2.5H20.3V32.6h-2.99V17.72h-3.07v-2.5h3.07v-3.21
	c0-3.07,1.71-4.61,4.92-4.61c1.14,0,2.359,0.15,3.529,0.5L25.51,10.22z"/>
<path d="M20,1C9.51,1,1,9.51,1,20s8.51,19,19,19s19-8.51,19-19S30.49,1,20,1z M28.4,28.25c-2.051,2.17-4.75,3.25-8.09,3.25
	c-3.2,0-5.91-1.1-8.12-3.32C9.97,25.97,8.86,23.24,8.86,20s1.11-5.97,3.33-8.18C14.4,9.6,17.11,8.5,20.31,8.5
	c1.62,0,3.15,0.28,4.58,0.86c1.44,0.57,2.62,1.38,3.54,2.43L26.4,13.82C25.72,13,24.85,12.36,23.77,11.89
	c-1.079-0.46-2.229-0.69-3.459-0.69c-2.4,0-4.43,0.83-6.09,2.49c-1.64,1.69-2.47,3.79-2.47,6.31c0,2.52,0.83,4.63,2.47,6.31
	c1.66,1.66,3.69,2.49,6.09,2.49c2.19,0,4.02-0.62,5.47-1.85c1.46-1.23,2.3-2.92,2.529-5.07h-8v-2.65h10.67
	c0.1,0.58,0.159,1.13,0.159,1.66C31.14,23.97,30.22,26.42,28.4,28.25z"/>
<g id="Capa_2">
</g>
<circle display="none" cx="20" cy="20" r="19"/>
</svg>
