<?xml version="1.0" encoding="utf-8"?>
<!-- Generator: Adobe Illustrator 16.0.3, SVG Export Plug-In . SVG Version: 6.00 Build 0)  -->
<!DOCTYPE svg PUBLIC "-//W3C//DTD SVG 1.1//EN" "http://www.w3.org/Graphics/SVG/1.1/DTD/svg11.dtd">
<svg version="1.1" id="Capa_1" xmlns="http://www.w3.org/2000/svg" xmlns:xlink="http://www.w3.org/1999/xlink" x="0px" y="0px"
	 width="32px" height="32px" viewBox="0 0 32 32" enable-background="new 0 0 32 32" xml:space="preserve">
<g>
	<g>
		<path d="M28.853,9.641h-5.709c-0.986,0-1.646,0.802-1.473,1.788L22.829,18h-2.135c0.043-0.432-0.003-0.939-0.136-1.532l0,0
			c-0.488-2.503-1.314-4.612-2.455-6.27c-0.887-1.287-1.793-2.058-2.535-2.52c0.635-0.797,0.884-1.931,0.653-3.239
			c-0.415-2.352-2.63-4.266-4.937-4.266S7.439,2.088,7.854,4.44c0.049,0.272,0.309,0.493,0.58,0.493H8.77
			C8.771,5.121,8.788,5.31,8.822,5.503c0.292,1.657,1.721,3.043,3.343,3.354c-0.058,0.609-0.012,1.329,0.133,2.145l-1.044,1.058
			l-2.95,0.242L4.65,11.161c-0.335-0.106-0.715-0.224-0.986,0c-0.268,0.222-0.199,0.609-0.177,0.736l0.452,2.566
			c0.049,0.272,0.309,0.494,0.58,0.494h0.587l-0.352,3.111C4.726,18.33,4.925,18.604,5.2,18.68s0.521-0.074,0.551-0.336l0.383-3.386
			h1.401c-0.805,5.316,0.815,8.867,2.979,12.458H9.627l-4.42-4.129l0.306-2.695c0.029-0.262-0.17-0.535-0.444-0.611
			c-0.275-0.076-0.522,0.074-0.552,0.336l-0.292,2.58C1.908,22.857,0.123,24.451,0,26.742c-0.014,0.266,0.198,0.529,0.474,0.59
			l0.729,0.162c0.148,1.857,1.681,3.611,3.622,4.039c0.295,0.066,0.586,0.098,0.87,0.098c0.7,0,1.353-0.195,1.894-0.576
			c0.636-0.447,1.052-1.105,1.202-1.883l0.574,0.127c0.172,0.039,0.331,0.059,0.473-0.027c0.131-0.076,0.203-0.219,0.211-0.377
			c0.006-0.162,0.004-0.326-0.008-0.492h10.315C21.047,30.453,23.065,32,25.148,32c2.084,0,3.556-1.547,3.524-3.598h0.376
			c0,0,0.076,0.002,0.093,0.002c0.141,0,0.342-0.016,0.479-0.186c0.068-0.086,0.14-0.238,0.089-0.48
			c-0.096-0.463-0.243-0.91-0.437-1.334c-0.028-2.387-0.662-3.838-1.423-4.977c0.313-0.23,0.478-0.631,0.397-1.086l-0.24-1.355H30.5
			c0.984,0,1.645-0.803,1.472-1.787l-1.018-5.77C30.78,10.443,29.838,9.641,28.853,9.641L28.853,9.641z M6.918,30.219
			c-0.562,0.395-1.287,0.521-2.041,0.354l0,0c-1.389-0.307-2.495-1.531-2.664-2.854l5.565,1.23
			C7.65,29.471,7.354,29.912,6.918,30.219L6.918,30.219z M9.039,28.254L1.057,26.49c0.307-1.621,1.71-2.695,3.468-2.602l4.499,4.201
			C9.03,28.145,9.035,28.199,9.039,28.254z M14.973,19.66c-0.076,0.377,0.006,0.844,0.119,1.488l0.328,1.861h-1.805l-0.451-2.555
			c-0.508-2.885,0.977-3.4,1.668-3.485h4.835c0.096,0.655,0.031,1.122-0.198,1.417c-0.266,0.344-0.796,0.512-1.62,0.514h-1.771
			C15.447,18.9,15.076,19.156,14.973,19.66L14.973,19.66z M15.594,23.996l0.209,1.178c-0.005,0-0.01,0-0.014,0h-3.504
			c-0.025-0.365,0.039-0.648,0.191-0.846c0.227-0.289,0.61-0.332,0.818-0.332H15.594z M19.472,15.984h-4.485
			c-0.279-0.567-0.55-1.188-0.795-1.826l1.208-0.885c0.659-0.483,0.927-1.166,0.731-1.874c-0.171-0.627-0.696-1.188-1.338-1.428
			c-0.585-0.219-1.161-0.15-1.623,0.182c-0.039-0.472-0.034-0.893,0.019-1.25c0.206-0.022,0.407-0.063,0.603-0.124
			c0.4-0.097,0.758-0.251,1.07-0.456C15.91,8.893,18.324,10.733,19.472,15.984L19.472,15.984z M8.789,3.948
			c-0.045-1.577,1.07-2.788,2.67-2.788c1.764,0,3.457,1.471,3.776,3.281c0.259,1.471-0.237,2.657-1.282,3.178l-0.458-2.595
			c-0.079-0.449-0.349-1-1.181-1.075c-0.016-0.001-0.029-0.001-0.045-0.001H8.789z M9.809,5.503
			C9.774,5.308,9.763,5.118,9.773,4.935h2.646c0.031,0.003,0.054,0.006,0.071,0.009c0.006,0.019,0.012,0.045,0.018,0.081l0.51,2.885
			c-0.115,0.017-0.231,0.026-0.35,0.026c-0.002,0-0.002,0-0.004,0C11.326,7.935,10.045,6.844,9.809,5.503L9.809,5.503z
			 M10.514,13.125l1.15-0.094c0.104-0.009,0.195-0.05,0.262-0.118l1.789-1.814l0,0c0.172-0.176,0.374-0.265,0.586-0.265
			c0.094,0,0.191,0.017,0.287,0.053c0.279,0.104,0.506,0.343,0.579,0.608c0.091,0.333-0.069,0.67-0.45,0.951l-2.08,1.525h-1.975
			L10.514,13.125L10.514,13.125z M8.459,13.294l1.082-0.089l0.135,0.766H8.4c-0.166,0-0.23-0.138-0.255-0.252
			C8.131,13.653,8.08,13.325,8.459,13.294z M7.231,12.953c-0.105,0.243-0.125,0.528-0.065,0.806c0.016,0.072,0.037,0.14,0.063,0.208
			c0,0.001-0.001,0.003,0,0.004h-2.39l-0.33-1.873l2.724,0.851C7.232,12.951,7.232,12.952,7.231,12.953L7.231,12.953z M8.576,14.958
			h4.381c0.094,0,0.184-0.028,0.254-0.08l0.197-0.145c0.191,0.474,0.395,0.936,0.605,1.373c-0.953,0.296-2.381,1.256-1.836,4.35
			l0.459,2.604c-0.333,0.07-0.714,0.23-0.994,0.59c-0.294,0.377-0.41,0.889-0.347,1.525h-0.995
			C8.789,22.283,7.865,19.209,8.576,14.958L8.576,14.958z M11.586,27.416c-0.256-0.42-0.505-0.838-0.744-1.258h5.121
			c0.663,0,0.946-0.301,0.842-0.896l-0.312-1.76l-0.327-1.861h3.892c0.273,0,0.455-0.221,0.407-0.492
			c-0.049-0.273-0.309-0.494-0.58-0.494h-3.89c-0.043-0.279-0.065-0.508-0.038-0.645c0.014-0.066,0.025-0.123,0.296-0.123h1.77
			c1.109-0.002,1.855-0.27,2.282-0.82c0.019-0.027,0.037-0.053,0.056-0.08h3.137h3.525l0.24,1.355
			c0.029,0.17-0.089,0.313-0.258,0.313h-4.909c-0.272,0-0.455,0.221-0.406,0.494c0.047,0.271,0.308,0.492,0.579,0.492h4.62
			c0.519,0.725,1.026,1.625,1.257,3.047c-1.215-1.355-2.948-2.227-4.74-2.227c-1.439,0-2.69,0.564-3.523,1.59
			c-0.739,0.91-1.07,2.092-0.958,3.365H11.586z M24.975,31.014c-1.542,0-3.037-1.111-3.616-2.611h6.313
			C27.62,29.902,26.517,31.014,24.975,31.014L24.975,31.014z M28.057,27.416h-7.433h-0.709c-0.15-2.229,1.407-3.969,3.664-3.969
			c1.981,0,3.876,1.305,4.749,3.135c0.004,0.006,0.007,0.012,0.01,0.018c0.124,0.264,0.227,0.535,0.307,0.816H28.057z
			 M30.985,17.199C31.063,17.641,30.768,18,30.326,18h-6.51l-0.449-2.546h7.311L30.985,17.199z M30.503,14.467h-7.31l-0.185-1.049
			h7.31L30.503,14.467z M30.146,12.432h-7.312l-0.176-1.002c-0.078-0.442,0.217-0.802,0.658-0.802h5.709
			c0.441,0,0.865,0.36,0.942,0.802L30.146,12.432z"/>
		<path d="M22.229,2.792c0,0.203-0.166,0.372-0.371,0.372c-0.011,0-5.285,0-5.285,0L16.441,2.42c0,0,5.406,0,5.417,0
			C22.063,2.42,22.229,2.586,22.229,2.792z"/>
		<path d="M24.151,4.464c0,0.247-0.202,0.455-0.453,0.455c-0.013,0-6.459,0-6.459,0L17.077,4.01c0,0,6.608,0,6.621,0
			C23.949,4.01,24.151,4.213,24.151,4.464z"/>
		<path d="M22.145,6.168c0,0.178-0.145,0.326-0.325,0.326c-0.008,0-4.626,0-4.626,0l-0.116-0.651c0,0,4.734,0,4.742,0
			C22,5.844,22.145,5.989,22.145,6.168z"/>
	</g>
</g>
</svg>
